<mxfile host="Electron" agent="Mozilla/5.0 (Windows NT 10.0; Win64; x64) AppleWebKit/537.36 (KHTML, like Gecko) draw.io/28.0.4 Chrome/138.0.7204.97 Electron/37.2.1 Safari/537.36" version="28.0.4">
  <diagram name="Page-1" id="VDcjW1lg-13MuleHzhuU">
    <mxGraphModel dx="3310" dy="2665" grid="1" gridSize="10" guides="1" tooltips="1" connect="1" arrows="1" fold="1" page="1" pageScale="1" pageWidth="850" pageHeight="1100" math="0" shadow="0">
      <root>
        <mxCell id="0" />
        <mxCell id="1" parent="0" />
        <mxCell id="AfW8s4Gp4mE30ldUR3pM-1" value="&lt;font style=&quot;font-size: 22px;&quot;&gt;User&lt;/font&gt;" style="rounded=0;whiteSpace=wrap;html=1;" vertex="1" parent="1">
          <mxGeometry x="180" y="180" width="120" height="60" as="geometry" />
        </mxCell>
        <mxCell id="AfW8s4Gp4mE30ldUR3pM-2" value="&lt;font style=&quot;font-size: 18px;&quot;&gt;userId&lt;/font&gt;" style="ellipse;whiteSpace=wrap;html=1;" vertex="1" parent="1">
          <mxGeometry x="-110" y="200" width="140" height="80" as="geometry" />
        </mxCell>
        <mxCell id="AfW8s4Gp4mE30ldUR3pM-3" value="&lt;font style=&quot;font-size: 18px;&quot;&gt;name&lt;/font&gt;" style="ellipse;whiteSpace=wrap;html=1;" vertex="1" parent="1">
          <mxGeometry x="-60" y="50" width="140" height="80" as="geometry" />
        </mxCell>
        <mxCell id="AfW8s4Gp4mE30ldUR3pM-4" value="&lt;font style=&quot;font-size: 18px;&quot;&gt;username&lt;/font&gt;" style="ellipse;whiteSpace=wrap;html=1;" vertex="1" parent="1">
          <mxGeometry x="140" y="-10" width="140" height="80" as="geometry" />
        </mxCell>
        <mxCell id="AfW8s4Gp4mE30ldUR3pM-6" value="&lt;font style=&quot;font-size: 18px;&quot;&gt;password&lt;/font&gt;" style="ellipse;whiteSpace=wrap;html=1;" vertex="1" parent="1">
          <mxGeometry x="340" width="140" height="80" as="geometry" />
        </mxCell>
        <mxCell id="AfW8s4Gp4mE30ldUR3pM-7" value="&lt;font style=&quot;font-size: 22px;&quot;&gt;Product&lt;/font&gt;" style="rounded=0;whiteSpace=wrap;html=1;" vertex="1" parent="1">
          <mxGeometry x="990" y="590" width="120" height="60" as="geometry" />
        </mxCell>
        <mxCell id="AfW8s4Gp4mE30ldUR3pM-9" value="" style="endArrow=none;html=1;rounded=0;entryX=0;entryY=0.75;entryDx=0;entryDy=0;exitX=1;exitY=0.5;exitDx=0;exitDy=0;" edge="1" parent="1" source="AfW8s4Gp4mE30ldUR3pM-2" target="AfW8s4Gp4mE30ldUR3pM-1">
          <mxGeometry width="50" height="50" relative="1" as="geometry">
            <mxPoint x="70" y="270" as="sourcePoint" />
            <mxPoint x="120" y="220" as="targetPoint" />
          </mxGeometry>
        </mxCell>
        <mxCell id="AfW8s4Gp4mE30ldUR3pM-10" value="" style="endArrow=none;html=1;rounded=0;entryX=0;entryY=0;entryDx=0;entryDy=0;exitX=1;exitY=1;exitDx=0;exitDy=0;" edge="1" parent="1" source="AfW8s4Gp4mE30ldUR3pM-3" target="AfW8s4Gp4mE30ldUR3pM-1">
          <mxGeometry width="50" height="50" relative="1" as="geometry">
            <mxPoint x="60" y="145" as="sourcePoint" />
            <mxPoint x="210" y="130" as="targetPoint" />
          </mxGeometry>
        </mxCell>
        <mxCell id="AfW8s4Gp4mE30ldUR3pM-11" value="" style="endArrow=none;html=1;rounded=0;entryX=0.5;entryY=0;entryDx=0;entryDy=0;exitX=0.5;exitY=1;exitDx=0;exitDy=0;" edge="1" parent="1" source="AfW8s4Gp4mE30ldUR3pM-4" target="AfW8s4Gp4mE30ldUR3pM-1">
          <mxGeometry width="50" height="50" relative="1" as="geometry">
            <mxPoint x="190" y="130" as="sourcePoint" />
            <mxPoint x="340" y="115" as="targetPoint" />
          </mxGeometry>
        </mxCell>
        <mxCell id="AfW8s4Gp4mE30ldUR3pM-12" value="" style="endArrow=none;html=1;rounded=0;entryX=0.33;entryY=1.004;entryDx=0;entryDy=0;exitX=1;exitY=0;exitDx=0;exitDy=0;entryPerimeter=0;" edge="1" parent="1" source="AfW8s4Gp4mE30ldUR3pM-1" target="AfW8s4Gp4mE30ldUR3pM-6">
          <mxGeometry width="50" height="50" relative="1" as="geometry">
            <mxPoint x="280" y="135" as="sourcePoint" />
            <mxPoint x="430" y="120" as="targetPoint" />
          </mxGeometry>
        </mxCell>
        <mxCell id="AfW8s4Gp4mE30ldUR3pM-13" value="&lt;font style=&quot;font-size: 18px;&quot;&gt;ProductId&lt;/font&gt;" style="ellipse;whiteSpace=wrap;html=1;" vertex="1" parent="1">
          <mxGeometry x="950" y="410" width="140" height="80" as="geometry" />
        </mxCell>
        <mxCell id="AfW8s4Gp4mE30ldUR3pM-14" value="&lt;font style=&quot;font-size: 18px;&quot;&gt;productName&lt;/font&gt;" style="ellipse;whiteSpace=wrap;html=1;" vertex="1" parent="1">
          <mxGeometry x="1150" y="430" width="140" height="80" as="geometry" />
        </mxCell>
        <mxCell id="AfW8s4Gp4mE30ldUR3pM-15" value="&lt;font style=&quot;font-size: 18px;&quot;&gt;price&lt;/font&gt;" style="ellipse;whiteSpace=wrap;html=1;" vertex="1" parent="1">
          <mxGeometry x="1310" y="530" width="140" height="80" as="geometry" />
        </mxCell>
        <mxCell id="AfW8s4Gp4mE30ldUR3pM-16" value="&lt;font style=&quot;font-size: 18px;&quot;&gt;productImage&lt;/font&gt;" style="ellipse;whiteSpace=wrap;html=1;" vertex="1" parent="1">
          <mxGeometry x="1280" y="670" width="140" height="80" as="geometry" />
        </mxCell>
        <mxCell id="AfW8s4Gp4mE30ldUR3pM-17" value="" style="endArrow=none;html=1;rounded=0;entryX=0.5;entryY=1;entryDx=0;entryDy=0;exitX=0.346;exitY=-0.057;exitDx=0;exitDy=0;exitPerimeter=0;" edge="1" parent="1" source="AfW8s4Gp4mE30ldUR3pM-7" target="AfW8s4Gp4mE30ldUR3pM-13">
          <mxGeometry width="50" height="50" relative="1" as="geometry">
            <mxPoint x="904" y="610" as="sourcePoint" />
            <mxPoint x="990" y="510" as="targetPoint" />
          </mxGeometry>
        </mxCell>
        <mxCell id="AfW8s4Gp4mE30ldUR3pM-18" value="" style="endArrow=none;html=1;rounded=0;entryX=0.205;entryY=0.897;entryDx=0;entryDy=0;exitX=0.75;exitY=0;exitDx=0;exitDy=0;entryPerimeter=0;" edge="1" parent="1" source="AfW8s4Gp4mE30ldUR3pM-7" target="AfW8s4Gp4mE30ldUR3pM-14">
          <mxGeometry width="50" height="50" relative="1" as="geometry">
            <mxPoint x="1100" y="670" as="sourcePoint" />
            <mxPoint x="1186" y="570" as="targetPoint" />
          </mxGeometry>
        </mxCell>
        <mxCell id="AfW8s4Gp4mE30ldUR3pM-19" value="" style="endArrow=none;html=1;rounded=0;entryX=0;entryY=0.5;entryDx=0;entryDy=0;exitX=1.017;exitY=0.414;exitDx=0;exitDy=0;exitPerimeter=0;" edge="1" parent="1" source="AfW8s4Gp4mE30ldUR3pM-7" target="AfW8s4Gp4mE30ldUR3pM-15">
          <mxGeometry width="50" height="50" relative="1" as="geometry">
            <mxPoint x="1160" y="760" as="sourcePoint" />
            <mxPoint x="1246" y="660" as="targetPoint" />
          </mxGeometry>
        </mxCell>
        <mxCell id="AfW8s4Gp4mE30ldUR3pM-20" value="" style="endArrow=none;html=1;rounded=0;entryX=0;entryY=0.375;entryDx=0;entryDy=0;exitX=1;exitY=0.75;exitDx=0;exitDy=0;entryPerimeter=0;" edge="1" parent="1" source="AfW8s4Gp4mE30ldUR3pM-7" target="AfW8s4Gp4mE30ldUR3pM-16">
          <mxGeometry width="50" height="50" relative="1" as="geometry">
            <mxPoint x="1180" y="800" as="sourcePoint" />
            <mxPoint x="1266" y="700" as="targetPoint" />
          </mxGeometry>
        </mxCell>
        <mxCell id="AfW8s4Gp4mE30ldUR3pM-21" value="&lt;font style=&quot;font-size: 22px;&quot;&gt;Cart&lt;/font&gt;" style="rounded=0;whiteSpace=wrap;html=1;" vertex="1" parent="1">
          <mxGeometry x="180" y="580" width="120" height="60" as="geometry" />
        </mxCell>
        <mxCell id="AfW8s4Gp4mE30ldUR3pM-22" value="&lt;font style=&quot;font-size: 18px;&quot;&gt;CartId&lt;/font&gt;" style="ellipse;whiteSpace=wrap;html=1;" vertex="1" parent="1">
          <mxGeometry x="-100" y="600" width="140" height="80" as="geometry" />
        </mxCell>
        <mxCell id="AfW8s4Gp4mE30ldUR3pM-23" value="" style="endArrow=none;html=1;rounded=0;entryX=0;entryY=0.5;entryDx=0;entryDy=0;exitX=1;exitY=0.5;exitDx=0;exitDy=0;" edge="1" parent="1" source="AfW8s4Gp4mE30ldUR3pM-22" target="AfW8s4Gp4mE30ldUR3pM-21">
          <mxGeometry width="50" height="50" relative="1" as="geometry">
            <mxPoint x="200" y="575" as="sourcePoint" />
            <mxPoint x="350" y="560" as="targetPoint" />
          </mxGeometry>
        </mxCell>
        <mxCell id="AfW8s4Gp4mE30ldUR3pM-24" value="&lt;font style=&quot;font-size: 22px;&quot;&gt;Order&lt;/font&gt;" style="rounded=0;whiteSpace=wrap;html=1;" vertex="1" parent="1">
          <mxGeometry x="680" y="30" width="120" height="60" as="geometry" />
        </mxCell>
        <mxCell id="AfW8s4Gp4mE30ldUR3pM-25" value="&lt;font style=&quot;font-size: 18px;&quot;&gt;orderId&lt;/font&gt;" style="ellipse;whiteSpace=wrap;html=1;" vertex="1" parent="1">
          <mxGeometry x="990" y="-130" width="140" height="80" as="geometry" />
        </mxCell>
        <mxCell id="AfW8s4Gp4mE30ldUR3pM-26" value="" style="endArrow=none;html=1;rounded=0;entryX=0;entryY=0.5;entryDx=0;entryDy=0;exitX=1;exitY=0;exitDx=0;exitDy=0;" edge="1" parent="1" source="AfW8s4Gp4mE30ldUR3pM-24" target="AfW8s4Gp4mE30ldUR3pM-25">
          <mxGeometry width="50" height="50" relative="1" as="geometry">
            <mxPoint x="930" y="-90" as="sourcePoint" />
            <mxPoint x="1100" y="-25" as="targetPoint" />
          </mxGeometry>
        </mxCell>
        <mxCell id="AfW8s4Gp4mE30ldUR3pM-27" value="&lt;font style=&quot;font-size: 18px;&quot;&gt;orderDate&lt;/font&gt;" style="ellipse;whiteSpace=wrap;html=1;" vertex="1" parent="1">
          <mxGeometry x="800" y="1320" width="140" height="80" as="geometry" />
        </mxCell>
        <mxCell id="AfW8s4Gp4mE30ldUR3pM-29" value="&lt;font style=&quot;font-size: 22px;&quot;&gt;cartItem&lt;/font&gt;" style="rounded=0;whiteSpace=wrap;html=1;" vertex="1" parent="1">
          <mxGeometry x="450" y="1180" width="120" height="60" as="geometry" />
        </mxCell>
        <mxCell id="AfW8s4Gp4mE30ldUR3pM-30" value="&lt;font style=&quot;font-size: 18px;&quot;&gt;&lt;font style=&quot;&quot;&gt;cartI&lt;/font&gt;&lt;font style=&quot;&quot;&gt;temId&lt;/font&gt;&lt;/font&gt;" style="ellipse;whiteSpace=wrap;html=1;" vertex="1" parent="1">
          <mxGeometry x="180" y="1180" width="140" height="80" as="geometry" />
        </mxCell>
        <mxCell id="AfW8s4Gp4mE30ldUR3pM-31" value="&lt;font style=&quot;font-size: 18px;&quot;&gt;cartId&lt;/font&gt;" style="ellipse;whiteSpace=wrap;html=1;" vertex="1" parent="1">
          <mxGeometry x="280" y="1330" width="140" height="80" as="geometry" />
        </mxCell>
        <mxCell id="AfW8s4Gp4mE30ldUR3pM-32" value="&lt;font style=&quot;font-size: 18px;&quot;&gt;productId&lt;/font&gt;" style="ellipse;whiteSpace=wrap;html=1;" vertex="1" parent="1">
          <mxGeometry x="540" y="1330" width="140" height="80" as="geometry" />
        </mxCell>
        <mxCell id="AfW8s4Gp4mE30ldUR3pM-33" value="&lt;font style=&quot;font-size: 18px;&quot;&gt;quantity&lt;/font&gt;" style="ellipse;whiteSpace=wrap;html=1;" vertex="1" parent="1">
          <mxGeometry x="820" y="1160" width="140" height="80" as="geometry" />
        </mxCell>
        <mxCell id="AfW8s4Gp4mE30ldUR3pM-34" value="&lt;font style=&quot;font-size: 18px;&quot;&gt;unitPrice&lt;/font&gt;" style="ellipse;whiteSpace=wrap;html=1;" vertex="1" parent="1">
          <mxGeometry x="810" y="1010" width="140" height="80" as="geometry" />
        </mxCell>
        <mxCell id="AfW8s4Gp4mE30ldUR3pM-35" value="" style="endArrow=none;html=1;rounded=0;entryX=0;entryY=0.5;entryDx=0;entryDy=0;exitX=1;exitY=0.5;exitDx=0;exitDy=0;" edge="1" parent="1" source="AfW8s4Gp4mE30ldUR3pM-30" target="AfW8s4Gp4mE30ldUR3pM-29">
          <mxGeometry width="50" height="50" relative="1" as="geometry">
            <mxPoint x="340" y="1220" as="sourcePoint" />
            <mxPoint x="530" y="1130" as="targetPoint" />
          </mxGeometry>
        </mxCell>
        <mxCell id="AfW8s4Gp4mE30ldUR3pM-36" value="" style="endArrow=none;html=1;rounded=0;entryX=0;entryY=1;entryDx=0;entryDy=0;" edge="1" parent="1" source="AfW8s4Gp4mE30ldUR3pM-31" target="AfW8s4Gp4mE30ldUR3pM-29">
          <mxGeometry width="50" height="50" relative="1" as="geometry">
            <mxPoint x="440" y="1410" as="sourcePoint" />
            <mxPoint x="630" y="1320" as="targetPoint" />
          </mxGeometry>
        </mxCell>
        <mxCell id="AfW8s4Gp4mE30ldUR3pM-37" value="" style="endArrow=none;html=1;rounded=0;entryX=0.817;entryY=1.066;entryDx=0;entryDy=0;exitX=0.274;exitY=0.031;exitDx=0;exitDy=0;exitPerimeter=0;entryPerimeter=0;" edge="1" parent="1" source="AfW8s4Gp4mE30ldUR3pM-32" target="AfW8s4Gp4mE30ldUR3pM-29">
          <mxGeometry width="50" height="50" relative="1" as="geometry">
            <mxPoint x="520" y="1390" as="sourcePoint" />
            <mxPoint x="710" y="1300" as="targetPoint" />
          </mxGeometry>
        </mxCell>
        <mxCell id="AfW8s4Gp4mE30ldUR3pM-38" value="" style="endArrow=none;html=1;rounded=0;entryX=0.08;entryY=0.201;entryDx=0;entryDy=0;exitX=1;exitY=1;exitDx=0;exitDy=0;entryPerimeter=0;" edge="1" parent="1" source="AfW8s4Gp4mE30ldUR3pM-29" target="AfW8s4Gp4mE30ldUR3pM-27">
          <mxGeometry width="50" height="50" relative="1" as="geometry">
            <mxPoint x="710" y="1360" as="sourcePoint" />
            <mxPoint x="900" y="1270" as="targetPoint" />
          </mxGeometry>
        </mxCell>
        <mxCell id="AfW8s4Gp4mE30ldUR3pM-39" value="" style="endArrow=none;html=1;rounded=0;entryX=-0.003;entryY=0.625;entryDx=0;entryDy=0;exitX=1;exitY=0.5;exitDx=0;exitDy=0;entryPerimeter=0;" edge="1" parent="1" source="AfW8s4Gp4mE30ldUR3pM-29" target="AfW8s4Gp4mE30ldUR3pM-33">
          <mxGeometry width="50" height="50" relative="1" as="geometry">
            <mxPoint x="730" y="1350" as="sourcePoint" />
            <mxPoint x="920" y="1260" as="targetPoint" />
          </mxGeometry>
        </mxCell>
        <mxCell id="AfW8s4Gp4mE30ldUR3pM-40" value="" style="endArrow=none;html=1;rounded=0;exitX=1;exitY=0;exitDx=0;exitDy=0;" edge="1" parent="1" source="AfW8s4Gp4mE30ldUR3pM-29" target="AfW8s4Gp4mE30ldUR3pM-34">
          <mxGeometry width="50" height="50" relative="1" as="geometry">
            <mxPoint x="830" y="1420" as="sourcePoint" />
            <mxPoint x="1020" y="1330" as="targetPoint" />
          </mxGeometry>
        </mxCell>
        <mxCell id="AfW8s4Gp4mE30ldUR3pM-41" value="&lt;font style=&quot;font-size: 18px;&quot;&gt;userId&lt;/font&gt;" style="ellipse;whiteSpace=wrap;html=1;" vertex="1" parent="1">
          <mxGeometry x="1010" y="20" width="140" height="80" as="geometry" />
        </mxCell>
        <mxCell id="AfW8s4Gp4mE30ldUR3pM-42" value="" style="endArrow=none;html=1;rounded=0;entryX=0;entryY=0.5;entryDx=0;entryDy=0;exitX=1;exitY=0.5;exitDx=0;exitDy=0;" edge="1" parent="1" source="AfW8s4Gp4mE30ldUR3pM-24" target="AfW8s4Gp4mE30ldUR3pM-41">
          <mxGeometry width="50" height="50" relative="1" as="geometry">
            <mxPoint x="900" y="450" as="sourcePoint" />
            <mxPoint x="1090" y="360" as="targetPoint" />
          </mxGeometry>
        </mxCell>
        <mxCell id="AfW8s4Gp4mE30ldUR3pM-43" value="&lt;span style=&quot;font-size: 18px;&quot;&gt;totalAmount&lt;/span&gt;" style="ellipse;whiteSpace=wrap;html=1;" vertex="1" parent="1">
          <mxGeometry x="990" y="190" width="140" height="80" as="geometry" />
        </mxCell>
        <mxCell id="AfW8s4Gp4mE30ldUR3pM-44" value="" style="endArrow=none;html=1;rounded=0;entryX=0;entryY=0.5;entryDx=0;entryDy=0;exitX=1;exitY=1;exitDx=0;exitDy=0;" edge="1" parent="1" source="AfW8s4Gp4mE30ldUR3pM-24" target="AfW8s4Gp4mE30ldUR3pM-43">
          <mxGeometry width="50" height="50" relative="1" as="geometry">
            <mxPoint x="1000" y="330" as="sourcePoint" />
            <mxPoint x="1210" y="300" as="targetPoint" />
          </mxGeometry>
        </mxCell>
        <mxCell id="AfW8s4Gp4mE30ldUR3pM-45" value="&lt;span style=&quot;font-size: 18px;&quot;&gt;totalPrice&lt;/span&gt;" style="ellipse;whiteSpace=wrap;html=1;" vertex="1" parent="1">
          <mxGeometry x="-80" y="450" width="140" height="80" as="geometry" />
        </mxCell>
        <mxCell id="AfW8s4Gp4mE30ldUR3pM-46" value="" style="endArrow=none;html=1;rounded=0;entryX=0;entryY=0;entryDx=0;entryDy=0;exitX=1;exitY=0.5;exitDx=0;exitDy=0;" edge="1" parent="1" source="AfW8s4Gp4mE30ldUR3pM-45" target="AfW8s4Gp4mE30ldUR3pM-21">
          <mxGeometry width="50" height="50" relative="1" as="geometry">
            <mxPoint x="200" y="950" as="sourcePoint" />
            <mxPoint x="320" y="860" as="targetPoint" />
          </mxGeometry>
        </mxCell>
        <mxCell id="AfW8s4Gp4mE30ldUR3pM-47" value="&lt;font style=&quot;font-size: 18px;&quot;&gt;Has&lt;/font&gt;" style="rhombus;whiteSpace=wrap;html=1;" vertex="1" parent="1">
          <mxGeometry x="210" y="350" width="80" height="80" as="geometry" />
        </mxCell>
        <mxCell id="AfW8s4Gp4mE30ldUR3pM-48" value="&lt;font style=&quot;font-size: 18px;&quot;&gt;Has&lt;/font&gt;" style="rhombus;whiteSpace=wrap;html=1;" vertex="1" parent="1">
          <mxGeometry x="310" y="900" width="80" height="80" as="geometry" />
        </mxCell>
        <mxCell id="AfW8s4Gp4mE30ldUR3pM-51" value="" style="endArrow=none;html=1;rounded=0;entryX=0.58;entryY=0.987;entryDx=0;entryDy=0;entryPerimeter=0;exitX=0.5;exitY=0;exitDx=0;exitDy=0;" edge="1" parent="1" source="AfW8s4Gp4mE30ldUR3pM-47" target="AfW8s4Gp4mE30ldUR3pM-1">
          <mxGeometry width="50" height="50" relative="1" as="geometry">
            <mxPoint x="230" y="320" as="sourcePoint" />
            <mxPoint x="280" y="270" as="targetPoint" />
          </mxGeometry>
        </mxCell>
        <mxCell id="AfW8s4Gp4mE30ldUR3pM-52" value="" style="endArrow=none;html=1;rounded=0;entryX=0.5;entryY=1;entryDx=0;entryDy=0;exitX=0.582;exitY=-0.004;exitDx=0;exitDy=0;exitPerimeter=0;" edge="1" parent="1" source="AfW8s4Gp4mE30ldUR3pM-21" target="AfW8s4Gp4mE30ldUR3pM-47">
          <mxGeometry width="50" height="50" relative="1" as="geometry">
            <mxPoint x="249.76" y="545.5" as="sourcePoint" />
            <mxPoint x="249.76" y="434.5" as="targetPoint" />
          </mxGeometry>
        </mxCell>
        <mxCell id="AfW8s4Gp4mE30ldUR3pM-53" value="&lt;font style=&quot;font-size: 22px;&quot;&gt;1&lt;/font&gt;" style="text;html=1;align=center;verticalAlign=middle;whiteSpace=wrap;rounded=0;" vertex="1" parent="1">
          <mxGeometry x="240" y="250" width="60" height="30" as="geometry" />
        </mxCell>
        <mxCell id="AfW8s4Gp4mE30ldUR3pM-54" value="&lt;font style=&quot;font-size: 22px;&quot;&gt;1&lt;/font&gt;" style="text;html=1;align=center;verticalAlign=middle;whiteSpace=wrap;rounded=0;" vertex="1" parent="1">
          <mxGeometry x="250" y="550" width="60" height="30" as="geometry" />
        </mxCell>
        <mxCell id="AfW8s4Gp4mE30ldUR3pM-55" value="" style="endArrow=none;html=1;rounded=0;entryX=0.5;entryY=1;entryDx=0;entryDy=0;exitX=0.5;exitY=0;exitDx=0;exitDy=0;" edge="1" parent="1" source="AfW8s4Gp4mE30ldUR3pM-48" target="AfW8s4Gp4mE30ldUR3pM-21">
          <mxGeometry width="50" height="50" relative="1" as="geometry">
            <mxPoint x="490" y="960" as="sourcePoint" />
            <mxPoint x="490" y="810" as="targetPoint" />
          </mxGeometry>
        </mxCell>
        <mxCell id="AfW8s4Gp4mE30ldUR3pM-56" value="" style="endArrow=none;html=1;rounded=0;entryX=0.5;entryY=1;entryDx=0;entryDy=0;exitX=0.25;exitY=0;exitDx=0;exitDy=0;" edge="1" parent="1" source="AfW8s4Gp4mE30ldUR3pM-29" target="AfW8s4Gp4mE30ldUR3pM-48">
          <mxGeometry width="50" height="50" relative="1" as="geometry">
            <mxPoint x="610" y="1210" as="sourcePoint" />
            <mxPoint x="500" y="950" as="targetPoint" />
          </mxGeometry>
        </mxCell>
        <mxCell id="AfW8s4Gp4mE30ldUR3pM-57" value="&lt;font style=&quot;font-size: 22px;&quot;&gt;1&lt;/font&gt;" style="text;html=1;align=center;verticalAlign=middle;whiteSpace=wrap;rounded=0;" vertex="1" parent="1">
          <mxGeometry x="250" y="650" width="60" height="30" as="geometry" />
        </mxCell>
        <mxCell id="AfW8s4Gp4mE30ldUR3pM-58" value="&lt;font style=&quot;font-size: 22px;&quot;&gt;M&lt;/font&gt;" style="text;html=1;align=center;verticalAlign=middle;whiteSpace=wrap;rounded=0;" vertex="1" parent="1">
          <mxGeometry x="480" y="1140" width="60" height="30" as="geometry" />
        </mxCell>
        <mxCell id="AfW8s4Gp4mE30ldUR3pM-59" value="&lt;font style=&quot;font-size: 18px;&quot;&gt;Order&lt;/font&gt;" style="rhombus;whiteSpace=wrap;html=1;" vertex="1" parent="1">
          <mxGeometry x="470" y="170" width="80" height="80" as="geometry" />
        </mxCell>
        <mxCell id="AfW8s4Gp4mE30ldUR3pM-60" value="" style="endArrow=none;html=1;rounded=0;entryX=1;entryY=0.5;entryDx=0;entryDy=0;exitX=0;exitY=0.5;exitDx=0;exitDy=0;" edge="1" parent="1" source="AfW8s4Gp4mE30ldUR3pM-59" target="AfW8s4Gp4mE30ldUR3pM-1">
          <mxGeometry width="50" height="50" relative="1" as="geometry">
            <mxPoint x="520" y="551" as="sourcePoint" />
            <mxPoint x="520" y="440" as="targetPoint" />
          </mxGeometry>
        </mxCell>
        <mxCell id="AfW8s4Gp4mE30ldUR3pM-61" value="" style="endArrow=none;html=1;rounded=0;entryX=1;entryY=0.5;entryDx=0;entryDy=0;exitX=0;exitY=0.5;exitDx=0;exitDy=0;" edge="1" parent="1" source="AfW8s4Gp4mE30ldUR3pM-24" target="AfW8s4Gp4mE30ldUR3pM-59">
          <mxGeometry width="50" height="50" relative="1" as="geometry">
            <mxPoint x="690" y="310" as="sourcePoint" />
            <mxPoint x="520" y="310" as="targetPoint" />
          </mxGeometry>
        </mxCell>
        <mxCell id="AfW8s4Gp4mE30ldUR3pM-62" value="&lt;font style=&quot;font-size: 22px;&quot;&gt;1&lt;/font&gt;" style="text;html=1;align=center;verticalAlign=middle;whiteSpace=wrap;rounded=0;" vertex="1" parent="1">
          <mxGeometry x="300" y="215" width="60" height="30" as="geometry" />
        </mxCell>
        <mxCell id="AfW8s4Gp4mE30ldUR3pM-63" value="&lt;font style=&quot;font-size: 22px;&quot;&gt;M&lt;/font&gt;" style="text;html=1;align=center;verticalAlign=middle;whiteSpace=wrap;rounded=0;" vertex="1" parent="1">
          <mxGeometry x="630" y="40" width="60" height="30" as="geometry" />
        </mxCell>
        <mxCell id="AfW8s4Gp4mE30ldUR3pM-64" value="&lt;font style=&quot;font-size: 18px;&quot;&gt;Add&lt;/font&gt;" style="rhombus;whiteSpace=wrap;html=1;" vertex="1" parent="1">
          <mxGeometry x="720" y="820" width="80" height="80" as="geometry" />
        </mxCell>
        <mxCell id="AfW8s4Gp4mE30ldUR3pM-65" value="" style="endArrow=none;html=1;rounded=0;entryX=0.5;entryY=1;entryDx=0;entryDy=0;exitX=0.75;exitY=0;exitDx=0;exitDy=0;" edge="1" parent="1" source="AfW8s4Gp4mE30ldUR3pM-29" target="AfW8s4Gp4mE30ldUR3pM-64">
          <mxGeometry width="50" height="50" relative="1" as="geometry">
            <mxPoint x="660" y="1290" as="sourcePoint" />
            <mxPoint x="550" y="1030" as="targetPoint" />
          </mxGeometry>
        </mxCell>
        <mxCell id="AfW8s4Gp4mE30ldUR3pM-66" value="&lt;font style=&quot;font-size: 22px;&quot;&gt;1&lt;/font&gt;" style="text;html=1;align=center;verticalAlign=middle;whiteSpace=wrap;rounded=0;" vertex="1" parent="1">
          <mxGeometry x="550" y="1140" width="60" height="30" as="geometry" />
        </mxCell>
        <mxCell id="AfW8s4Gp4mE30ldUR3pM-67" value="&lt;font style=&quot;font-size: 22px;&quot;&gt;1&lt;/font&gt;" style="text;html=1;align=center;verticalAlign=middle;whiteSpace=wrap;rounded=0;" vertex="1" parent="1">
          <mxGeometry x="950" y="650" width="60" height="30" as="geometry" />
        </mxCell>
        <mxCell id="AfW8s4Gp4mE30ldUR3pM-68" value="" style="endArrow=none;html=1;rounded=0;entryX=0;entryY=0.5;entryDx=0;entryDy=0;exitX=0.5;exitY=0;exitDx=0;exitDy=0;" edge="1" parent="1" source="AfW8s4Gp4mE30ldUR3pM-64" target="AfW8s4Gp4mE30ldUR3pM-7">
          <mxGeometry width="50" height="50" relative="1" as="geometry">
            <mxPoint x="880" y="1340" as="sourcePoint" />
            <mxPoint x="1100" y="1060" as="targetPoint" />
          </mxGeometry>
        </mxCell>
        <mxCell id="AfW8s4Gp4mE30ldUR3pM-69" value="&lt;font style=&quot;font-size: 18px;&quot;&gt;Has&lt;/font&gt;" style="rhombus;whiteSpace=wrap;html=1;" vertex="1" parent="1">
          <mxGeometry x="620" y="380" width="80" height="80" as="geometry" />
        </mxCell>
        <mxCell id="AfW8s4Gp4mE30ldUR3pM-70" value="" style="endArrow=none;html=1;rounded=0;entryX=0.5;entryY=1;entryDx=0;entryDy=0;exitX=1;exitY=0.5;exitDx=0;exitDy=0;" edge="1" parent="1" source="AfW8s4Gp4mE30ldUR3pM-21" target="AfW8s4Gp4mE30ldUR3pM-69">
          <mxGeometry width="50" height="50" relative="1" as="geometry">
            <mxPoint x="530" y="1020" as="sourcePoint" />
            <mxPoint x="420" y="760" as="targetPoint" />
          </mxGeometry>
        </mxCell>
        <mxCell id="AfW8s4Gp4mE30ldUR3pM-71" value="" style="endArrow=none;html=1;rounded=0;entryX=0.5;entryY=1;entryDx=0;entryDy=0;exitX=0.5;exitY=0;exitDx=0;exitDy=0;" edge="1" parent="1" source="AfW8s4Gp4mE30ldUR3pM-69" target="AfW8s4Gp4mE30ldUR3pM-24">
          <mxGeometry width="50" height="50" relative="1" as="geometry">
            <mxPoint x="550" y="660" as="sourcePoint" />
            <mxPoint x="910" y="510" as="targetPoint" />
          </mxGeometry>
        </mxCell>
        <mxCell id="AfW8s4Gp4mE30ldUR3pM-72" value="&lt;font style=&quot;font-size: 22px;&quot;&gt;1&lt;/font&gt;" style="text;html=1;align=center;verticalAlign=middle;whiteSpace=wrap;rounded=0;" vertex="1" parent="1">
          <mxGeometry x="300" y="600" width="60" height="30" as="geometry" />
        </mxCell>
        <mxCell id="AfW8s4Gp4mE30ldUR3pM-73" value="&lt;font style=&quot;font-size: 22px;&quot;&gt;1&lt;/font&gt;" style="text;html=1;align=center;verticalAlign=middle;whiteSpace=wrap;rounded=0;" vertex="1" parent="1">
          <mxGeometry x="730" y="90" width="60" height="30" as="geometry" />
        </mxCell>
        <mxCell id="AfW8s4Gp4mE30ldUR3pM-74" value="&lt;font style=&quot;font-size: 18px;&quot;&gt;IsActive&lt;/font&gt;" style="ellipse;whiteSpace=wrap;html=1;" vertex="1" parent="1">
          <mxGeometry x="-40" y="770" width="140" height="80" as="geometry" />
        </mxCell>
        <mxCell id="AfW8s4Gp4mE30ldUR3pM-75" value="" style="endArrow=none;html=1;rounded=0;entryX=0.25;entryY=1;entryDx=0;entryDy=0;exitX=1;exitY=0;exitDx=0;exitDy=0;" edge="1" parent="1" source="AfW8s4Gp4mE30ldUR3pM-74" target="AfW8s4Gp4mE30ldUR3pM-21">
          <mxGeometry width="50" height="50" relative="1" as="geometry">
            <mxPoint x="150" y="790" as="sourcePoint" />
            <mxPoint x="290" y="760" as="targetPoint" />
          </mxGeometry>
        </mxCell>
      </root>
    </mxGraphModel>
  </diagram>
</mxfile>
